<svg width="84" height="119" viewBox="0 0 84 119" fill="none" xmlns="http://www.w3.org/2000/svg">
<path fill-rule="evenodd" clip-rule="evenodd" d="M44.3655 1.16304C43.5463 0.826697 42.6491 0.641235 41.7087 0.641235C39.8461 0.641235 38.1534 1.36871 36.8992 2.55504C36.8463 2.60508 36.7942 2.65594 36.7429 2.70759L2.07955 37.3709C-0.654121 40.1046 -0.654121 44.5367 2.07955 47.2704C4.81322 50.0041 9.24537 50.0041 11.979 47.2704L34.7087 24.5408V111.68C34.7087 115.546 37.8427 118.68 41.7087 118.68C45.5747 118.68 48.7087 115.546 48.7087 111.68V24.5407L71.4384 47.2704C74.1721 50.0041 78.6042 50.0041 81.3379 47.2704C84.0716 44.5367 84.0716 40.1046 81.3379 37.3709L46.6585 2.69149C45.9812 2.01421 45.1996 1.50472 44.3655 1.16304Z" fill="white"/>
</svg>
