<svg width="100" height="120" viewBox="0 0 100 120" fill="none" xmlns="http://www.w3.org/2000/svg">
<path d="M69.2842 2.02253C68.6731 1.38978 67.9421 0.885073 67.1338 0.537863C66.3255 0.190653 65.4562 0.00789417 64.5765 0.000250138C63.6969 -0.0073939 62.8245 0.16023 62.0103 0.493341C61.1961 0.826452 60.4564 1.31838 59.8344 1.94042C59.2123 2.56246 58.7204 3.30215 58.3873 4.11634C58.0542 4.93053 57.8866 5.80291 57.8942 6.68257C57.9019 7.56223 58.0846 8.43156 58.4318 9.23984C58.779 10.0481 59.2837 10.7791 59.9165 11.3903L75.1076 26.5814H29.8125C21.9057 26.5814 14.3228 29.7224 8.73188 35.3133C3.14095 40.9042 0 48.4871 0 56.3939V112.706C0 114.463 0.69799 116.149 1.94042 117.391C3.18285 118.633 4.86794 119.331 6.625 119.331C8.38206 119.331 10.0672 118.633 11.3096 117.391C12.552 116.149 13.25 114.463 13.25 112.706V56.3939C13.25 52.0013 14.995 47.7885 18.101 44.6825C21.2071 41.5764 25.4199 39.8314 29.8125 39.8314H78.4069L59.9099 58.3218C59.2943 58.9369 58.806 59.6672 58.4727 60.471C58.1394 61.2748 57.9677 62.1364 57.9674 63.0066C57.9671 63.8768 58.1382 64.7385 58.4709 65.5426C58.8036 66.3467 59.2915 67.0773 59.9066 67.6928C60.5217 68.3084 61.252 68.7967 62.0558 69.13C62.8596 69.4633 63.7212 69.635 64.5914 69.6353C65.4616 69.6356 66.3233 69.4645 67.1274 69.1318C67.9314 68.7991 68.6621 68.3113 69.2776 67.6962L97.4339 39.5399C98.6739 38.2978 99.3703 36.6144 99.3703 34.8593C99.3703 33.1043 98.6739 31.4209 97.4339 30.1788L69.2842 2.02253Z" fill="#FEFEFE"/>
</svg>
