<svg width="102" height="119" viewBox="0 0 102 119" fill="none" xmlns="http://www.w3.org/2000/svg">
<path fill-rule="evenodd" clip-rule="evenodd" d="M44.831 21.0589C49.6709 16.219 56.2352 13.5 63.0798 13.5C69.9244 13.5 76.4887 16.219 81.3286 21.0589C86.1685 25.8988 88.8875 32.4631 88.8875 39.3077V79.6923C88.8875 83.2822 91.7976 86.1923 95.3875 86.1923C98.9773 86.1923 101.887 83.2822 101.887 79.6923V39.3077C101.887 29.0153 97.7988 19.1444 90.521 11.8665C83.2431 4.58866 73.3722 0.5 63.0798 0.5C52.7873 0.5 42.9165 4.58866 35.6386 11.8665C28.3607 19.1444 24.2721 29.0153 24.2721 39.3077V96.3078L11.1373 83.173C8.59892 80.6346 4.48335 80.6346 1.94494 83.173C-0.593464 85.7114 -0.593464 89.827 1.94494 92.3654L26.1757 116.596C26.82 117.24 27.5659 117.721 28.3619 118.038C29.1072 118.336 29.9205 118.5 30.7721 118.5C31.6888 118.5 32.5612 118.31 33.3521 117.968C33.9722 117.7 34.559 117.331 35.0875 116.861C35.1942 116.766 35.2978 116.668 35.398 116.566L59.5989 92.3654C62.1373 89.827 62.1373 85.7114 59.5989 83.173C57.0605 80.6346 52.9449 80.6346 50.4065 83.173L37.2721 96.3074V39.3077C37.2721 32.4631 39.9911 25.8988 44.831 21.0589Z" fill="#FEFEFE"/>
</svg>
